# xmcd
#
# Track frame offsets:
#	150
#	8243
#	100549
#
# Disc length: 2472 seconds
# Revision: 0
# Processed by: cddbd v1.5.2PL0 Copyright (c) Steve Scherf et al.
# Submitted via: dBpowerAMP V12.0
#
DISCID=1409a603
DTITLE=Lester Levenson - digitally remastered - The Ultimate Goal Vol 01 CD 01
DYEAR=2008
DGENRE=Speech
TTITLE0=Introduction
TTITLE1=The Ultimate Truth
TTITLE2=Experiencing Truth
EXTD=
EXTT0=
EXTT1=
EXTT2=
PLAYORDER=
